# xmcd
#
# Track frame offsets: 
#        150
#        9581
#        32078
#        43601
#        64589
#        90239
#        116650
#        142278
#        159642
#        179664
#        205797
#        216677
#        225643
#        250289
#        272773
#        293257
#        310859
#
# Disc length: 4418 seconds
#
# Revision: 1
# Processed by: cddbd v1.5.2PL0 Copyright (c) Steve Scherf et al.
# Submitted via: ExactAudioCopy v0.99pb5
#
DISCID=f7114011
DTITLE=Various Artist - Batucada, Vol 1
DYEAR=1900
DGENRE=Jazz
TTITLE0=Walter Wanderley - Batucada
TTITLE1=Rainer Truby Trio - Prima Vera
TTITLE2=Sergio Mendes and Brasil'66 - The Joker
TTITLE3=Boozoo Bajou - Under My Sensi
TTITLE4=Cal Tjader - Samba Do Suenho
TTITLE5=The Funky Lowlines - Notabossa
TTITLE6=Montefiori Cocktail - Another B
TTITLE7=Audio Lotion - Separacao (Baia Mix)
TTITLE8=Face and Feline - For Claudia
TTITLE9=Nicola Conte - Bossa Per Due
TTITLE10=De-Phazz - Downtown Tazacorte
TTITLE11=Marcos Valle - Batuque
TTITLE12=De-Phazz - Between 2 Tieves
TTITLE13=De-Phazz - Cut The Jazz
TTITLE14=De-Phazz - Lullaby
TTITLE15=De-Phazz - Hero Dead and Gone
TTITLE16=De-Phazz - No Jive
EXTD=
EXTT0=
EXTT1=
EXTT2=
EXTT3=
EXTT4=
EXTT5=
EXTT6=
EXTT7=
EXTT8=
EXTT9=
EXTT10=
EXTT11=
EXTT12=
EXTT13=
EXTT14=
EXTT15=
EXTT16=
PLAYORDER=
